<?xml version="1.0" encoding="UTF-8" standalone="no"?>
<svg
   width="400"
   height="400"
   viewBox="0 0 400 400"
   fill="none"
   version="1.1"
   id="svg1"
   xmlns="http://www.w3.org/2000/svg">
  <path
     d="M 83.627118,254.11242 183.74576,354.23107 c 2.49153,2.49152 5.86017,3.89407 9.36864,3.89407 h 13.72034 c 5.76271,0 8.64407,-6.97458 4.52542,-11.09323 L 115.01695,250.6975 c -2.49152,-2.49153 -5.86017,-3.89407 -9.36864,-3.89407 H 92.033898 c -5.76271,0 -8.64407,6.97458 -4.40678,11.09323 z"
     fill="#00ffa3"
     id="path1" />
  <path
     d="m 83.627118,145.89991 183.728812,-183.898302 c 4.0339,-4.118644 11.0084,-1.237288 11.0084,4.525423 v 13.720339 c 0,3.50847 -1.40254,6.877119 -3.89407,9.368644 L 92.033898,171.30495 c -2.49153,2.49153 -5.86017,3.89407 -9.36864,3.89407 h -13.720339 c -5.762712,0 -8.644068,-6.97458 -4.525423,-11.09322 z"
     fill="#00ffa3"
     id="path2" />
  <path
     d="m 278.38983,171.30496 -91.10593,91.10593 c -2.49153,2.49153 -5.86017,3.89407 -9.36864,3.89407 H 83.627118 c -5.762711,0 -8.644067,-6.97458 -4.525423,-11.09322 l 91.105935,-91.10594 c 2.49153,-2.49153 5.86017,-3.89407 9.36864,-3.89407 h 94.28814 c 5.76271,0 8.64407,6.97459 4.52542,11.09323 z"
     fill="#9945ff"
     id="path3" />
</svg> 